<svg id="Iconlar" xmlns="http://www.w3.org/2000/svg" viewBox="0 0 400 500"><defs><style>.cls-1,.cls-2{fill:none;}.cls-2{stroke:#fff;stroke-miterlimit:10;stroke-width:1.14px;}.cls-3{fill:#fff;}</style></defs><rect class="cls-1" width="400" height="500"/><polyline class="cls-2" points="370 41.86 370 30 30 30 30 470 370 470 370 114.08 370 118.39"/><path class="cls-3" d="M383.37,70.48a11.19,11.19,0,0,0-5.1-4.61,11.47,11.47,0,0,0-6.53-.49l-.81.16.09-.83c.47-4.6,3-7.31,5.56-9.83l-.86-.88c-2.25,2.21-4.46,4.54-5.48,8.08l-.41,1.45-.72-1.33a12.43,12.43,0,0,0-4.32-5c-1.59-.9-3.93-1.28-6.94-1.15a27.2,27.2,0,0,0-2.84.27l-.86.13h0l-.64,1.11,0,.05c.06.18.17.46.3.79.2.49.62,1.47,1.19,2.55,1.4,2.64,2.91,4.43,4.49,5.32a6.76,6.76,0,0,0,1.35.57l1,.34-.83.71a19,19,0,0,0-4.46,5.91A24.54,24.54,0,0,0,354,84.87c.2,9.26,6,19.11,16.35,19.11A14.76,14.76,0,0,0,381,99.43a20.64,20.64,0,0,0,5.61-14.58C386.6,81.45,386.11,75.07,383.37,70.48Zm-23.3-5.29h0c-1.72-1-3.13-3.16-4-4.83-.34-.65-.66-1.32-1-2l-.32-.75.81-.11c.82-.1,1.58-.17,2.33-.2,1.91-.08,4.55,0,6.27,1s3.12,3.16,4,4.83c.28.52.52,1,.72,1.47l.43,1-1.23-.1c-.31,0-.63-.06-1-.06a8.94,8.94,0,0,0-3.3.72l-.14.06h-.16A8.9,8.9,0,0,1,360.07,65.19ZM380.2,98.51a13.67,13.67,0,0,1-9.9,4.23c-9.57,0-14.93-9.22-15.12-17.9a22.7,22.7,0,0,1,2.48-10.5,15.08,15.08,0,0,1,6.39-7,6.58,6.58,0,0,1,3.11-.74A9.49,9.49,0,0,1,370,67a6.69,6.69,0,0,1,4.38,4.4c1,2.63,1.55,6.51,1.55,11.87,0,1.89-.06,3.54-.18,5a.6.6,0,0,0,.56.66.61.61,0,0,0,.67-.56c.12-1.52.18-3.25.18-5.14,0-5.52-.53-9.55-1.63-12.32a9.36,9.36,0,0,0-2.25-3.46l-1.05-1,1.44-.07a9.4,9.4,0,0,1,4.1.63,9.05,9.05,0,0,1,4.5,4.1c2.6,4.34,3.06,10.48,3.1,13.75A19.06,19.06,0,0,1,380.2,98.51Z"/></svg>