<svg id="Iconlar" xmlns="http://www.w3.org/2000/svg" viewBox="0 0 400 500"><defs><style>.cls-1,.cls-2{fill:none;}.cls-2{stroke:#fff;stroke-miterlimit:10;stroke-width:1.14px;}.cls-3{fill:#fff;}</style></defs><rect class="cls-1" width="400" height="500"/><polyline class="cls-2" points="370 41.86 370 30 30 30 30 470 370 470 370 114.08 370 118.39"/><path class="cls-3" d="M360.32,94.93a.61.61,0,0,0,.39-.13,5.34,5.34,0,0,0,1.83-4,.54.54,0,0,0-1.07,0A4.25,4.25,0,0,1,360,94a.54.54,0,0,0-.06.76A.56.56,0,0,0,360.32,94.93Z"/><path class="cls-3" d="M384.92,94.93a.59.59,0,0,0,.39-.13c.11-.1.24-.21.34-.32a5.34,5.34,0,0,0,1.5-3.73.54.54,0,0,0-1.08,0,4.24,4.24,0,0,1-1.2,3,3,3,0,0,1-.26.24.54.54,0,0,0-.05.76A.52.52,0,0,0,384.92,94.93Z"/><path class="cls-3" d="M360.59,52.47a11.24,11.24,0,0,0,2.51,4.92,8.57,8.57,0,0,0,4.14,2.22l1.28.29-.92.93a35.2,35.2,0,0,0-7.31,10.86,35.11,35.11,0,0,0-2.92,8.66l-.11.52-.53,0a10,10,0,1,0,10.73,10A10,10,0,0,0,359.12,81l-.77-.11.16-.76a33.52,33.52,0,0,1,2.75-8,33.3,33.3,0,0,1,8.21-11.64L370,60l.5.51c4.23,4.33,5.82,6.38,8.25,11.63a33.52,33.52,0,0,1,2.75,8l.16.76-.77.11a10,10,0,1,0,11.19,9.92,9.9,9.9,0,0,0-8.8-10l-.53,0-.11-.52a35.53,35.53,0,0,0-2.92-8.66c-2.54-5.45-4.23-7.61-8.75-12.23l-.33-.34,3.2-7.95-1-.4-2.29,5.69-.68-1.67a8.35,8.35,0,0,0-1.66-2.64,10.61,10.61,0,0,0-4.78-2.57,14.74,14.74,0,0,0-1.87-.32l-.48,0-.82.83c0,.13,0,.3,0,.5A17.72,17.72,0,0,0,360.59,52.47Zm5.8,38.44a8.69,8.69,0,1,1-8.69-9A8.84,8.84,0,0,1,366.39,90.91Zm24.6,0a8.69,8.69,0,1,1-8.69-9A8.84,8.84,0,0,1,391,90.91ZM362.3,50.45c.27,0,.55.1.87.18a8.45,8.45,0,0,1,4.28,2.29A6.9,6.9,0,0,1,369.39,57a9.52,9.52,0,0,1,.1,1l0,.81-.81,0c-.27,0-.56-.05-.89-.1a6.59,6.59,0,0,1-4-2,8.84,8.84,0,0,1-2.21-4.4c-.08-.34-.14-.65-.18-.94l-.16-1Z"/></svg>