<svg xmlns="http://www.w3.org/2000/svg" xmlns:xlink="http://www.w3.org/1999/xlink" viewBox="0 0 213.55 213.55"><defs><style>.cls-1{fill:none;}.cls-2{fill:#ffe800;stroke:#ee8d00;stroke-width:0.68px;}.cls-2,.cls-8{stroke-miterlimit:3.86;}.cls-2,.cls-4,.cls-6,.cls-9{fill-rule:evenodd;}.cls-3{fill:url(#radial-gradient);}.cls-4{fill:url(#New_Gradient_Swatch_3);}.cls-5,.cls-6,.cls-8{fill:#e44e1b;}.cls-7,.cls-9{fill:#312780;}.cls-8{stroke:#ffe800;stroke-width:0.4px;}</style><radialGradient id="radial-gradient" cx="106.98" cy="14893.43" r="70.56" gradientTransform="matrix(1, 0, 0, -1, 0, 15000.21)" gradientUnits="userSpaceOnUse"><stop offset="0" stop-color="#ffdb00"/><stop offset="1" stop-color="#f09310"/></radialGradient><linearGradient id="New_Gradient_Swatch_3" x1="127.99" y1="31.2" x2="137.76" y2="58.04" gradientUnits="userSpaceOnUse"><stop offset="0" stop-color="#8fbc24"/><stop offset="1" stop-color="#036731"/></linearGradient></defs><title>Asset 8</title><g id="Layer_2" data-name="Layer 2"><g id="Layer_1-2" data-name="Layer 1"><rect class="cls-1" width="213.55" height="213.55"/><path class="cls-2" d="M42.11,89.14H203.56s2.22,10.92-7.06,14.16H46.4s-3.11-3.46-4.15-13.36Z"/><ellipse class="cls-3" cx="106.98" cy="106.78" rx="69.59" ry="71.52"/><path class="cls-2" d="M173.17,131.6H41.53a72.55,72.55,0,0,0,6.85,14.15H166.11C175.39,142.51,173.17,131.6,173.17,131.6Z"/><path class="cls-2" d="M183.46,117.45H38.06a75,75,0,0,0,3.47,14.15H176.41C185.68,128.36,183.46,117.45,183.46,117.45Z"/><path class="cls-2" d="M193.36,103.3h-156c0,1.15-.08,2.31-.08,3.47a75,75,0,0,0,.77,10.68H186.3C195.58,114.21,193.36,103.3,193.36,103.3Z"/><path class="cls-4" d="M101.05,58.21s7.92-40.8,64.56-24.67c0,0-19.34,37.62-62.6,25.28Z"/><path class="cls-5" d="M95.08,141.54h1.54l.62-1.11.49-.17c.21.43.33,1.36,1.59,1.36a2.43,2.43,0,0,0,1.66-.76l-.28-.07a1.23,1.23,0,0,1-.75.4.5.5,0,0,1-.46-.27,6.49,6.49,0,0,1-.54-1.13l1.71-.74a2.43,2.43,0,0,1,.77-.11v-.15h-2.6v.15c.19,0,.63,0,.63.15s-1.66.87-2,1L99,137.35c-.88.08-1.73.14-2.61.19v.16c.59-.08.85.08.78.2Z"/><path class="cls-6" d="M105.76,139.15c-.15-.29-.33-.43-.94-.43-1.71,0-3.4,1.34-3.4,2.07,0,.46.39.83,1.42.83a3.12,3.12,0,0,0,2-.78c-.45.38-.06.78.67.78a3.39,3.39,0,0,0,1.91-.77l-.27-.09c-.19.09-.62.48-1,.43a.33.33,0,0,1,0-.38l1.23-2-1.4,0Zm-2.25,2c-.4,0-.55-.2-.55-.37,0-.37,1-1.83,2-1.83.5,0,.52.21.52.33,0,.41-.89,1.87-2,1.87"/><path class="cls-5" d="M109.28,141.54a5.43,5.43,0,0,1,2-2.19.52.52,0,0,1,.25,0,1.05,1.05,0,0,0,.65.23c.53,0,.75-.26.75-.47s-.28-.38-.72-.38a3.2,3.2,0,0,0-2,1.1h-.06l.7-1.09c-.91.08-1.72.12-2.51.17v.17a1.63,1.63,0,0,1,.57,0c.13.05.15.16,0,.4l-1.17,2Z"/><path class="cls-6" d="M117,138.92a1.89,1.89,0,0,0-.91-.2,4.66,4.66,0,0,0-2.34.76c-.53.36-1.06.89-1.06,1.33s.41.81,1.35.81a3.16,3.16,0,0,0,2-.77c-.44.58.12.77.66.77a3.14,3.14,0,0,0,1.84-.77l-.28-.1c-.13.09-.62.51-.91.43,0,0-.07-.07,0-.11l2.09-3.72c-2.07.16-2.34.18-2.63.19v.16h.12c.62,0,.76.05.6.36Zm-.7.06c.4,0,.51.14.51.31s-.86,1.89-2,1.89c-.41,0-.57-.17-.57-.37a2.68,2.68,0,0,1,2.05-1.83"/><path class="cls-6" d="M123.13,140.67a2.32,2.32,0,0,1-1.38.56c-1.17,0-.87-.68-.82-.8,1.46-.09,3.22-.57,3.22-1.15,0-.37-.62-.56-1.33-.56-1.9,0-3.59,1.09-3.59,2,0,.54.76.94,1.9.94a3.45,3.45,0,0,0,2.37-.85Zm-2.11-.44c.15-.31.82-1.43,1.8-1.28.47.06.2,1.06-1.8,1.28"/><path class="cls-6" d="M125.09,141.62a.4.4,0,0,1,.31-.12,11.66,11.66,0,0,0,1.23.12c1.56,0,1.86-.56,1.86-.83s-.32-.51-.62-.71l-1-.62c-.51-.33.16-.54.52-.54a1,1,0,0,1,1.12.73h.33l.29-.94h-.37c-.11.17-.38.15-.58.12s-.55-.11-.7-.12a5.93,5.93,0,0,0-.74,0c-.93.1-1.19.47-1.19.75s.41.63.86.9c.29.16.84.47.84.7s-.33.34-.75.34a1.1,1.1,0,0,1-1.17-.81l-.34,0-.27,1Zm-.29,1.19a7.66,7.66,0,0,0,1.37.15c.71,0,1.67-.16,1.58-.58,0-.12-.19-.26-.46-.31a3.5,3.5,0,0,0-1-.06l.57-.41h-.57l-.83.59.15.08c.46-.05,1,0,1,.19s-.39.25-.74.25a3.11,3.11,0,0,1-.81-.11Z"/><path class="cls-5" d="M130.05,140.66c-.51.89,0,1,.58,1a3.18,3.18,0,0,0,2.12-.83l-.27-.09a2.76,2.76,0,0,1-1,.48c-.21,0-.28-.1-.14-.23l2.07-3.6c-.88.09-1.75.15-2.63.19v.16c.37,0,.79,0,.79.2Z"/><path class="cls-6" d="M137.22,140.67a2.35,2.35,0,0,1-1.39.56c-1.16,0-.86-.68-.81-.8,1.45-.09,3.22-.57,3.22-1.15,0-.37-.63-.56-1.34-.56-1.9,0-3.58,1.09-3.58,2,0,.54.76.94,1.89.94a3.5,3.5,0,0,0,2.38-.85Zm-2.12-.44c.16-.31.83-1.43,1.8-1.28.48.06.21,1.06-1.8,1.28"/><path class="cls-5" d="M140.26,141.54a5.54,5.54,0,0,1,2-2.19.52.52,0,0,1,.25,0,1.05,1.05,0,0,0,.65.23c.53,0,.75-.26.75-.47s-.28-.38-.73-.38a3.14,3.14,0,0,0-1.94,1.1h-.07l.7-1.09c-.92.08-1.73.12-2.52.17v.17a1.58,1.58,0,0,1,.57,0c.14.05.16.16,0,.4l-1.18,2Z"/><path class="cls-7" d="M139.19,121.76a14.66,14.66,0,0,1,3.06-2,5.45,5.45,0,0,1,1.84-.48l1.27,0v-3.52H134.75l2.91-9.64-2,.32c-2.15.33-3.61.54-4.4.65s-2.22.25-4.26.45l-1.18.12v3.52l1.33,0c.59,0,1,0,1.27,0a.64.64,0,0,1,0,.2c-.05.22-.13.52-.25.9l-7,22.87h7.84l2-6.58a18,18,0,0,0,1,3.13,7.6,7.6,0,0,0,1.84,2.64,4.61,4.61,0,0,0,3.18,1.15,5.63,5.63,0,0,0,4.12-1.77,15.87,15.87,0,0,0,2.63-3.57l.68-1.24-3.27-1.49-.59,1a12,12,0,0,1-1,1.48.92.92,0,0,1-.38.28,23.24,23.24,0,0,1-1.07-3c-.1-.32-.28-1-.62-2.63-.1-.49-.18-.85-.23-1.13l.52-.42Zm-3.83-2.52h.39a19.29,19.29,0,0,1-1.76,1.54l-1,.75,1.07-3.55v1.25Z"/><path class="cls-8" d="M122.86,133.75l6.49-21.18c.12-.42.2-.74.26-1a3.22,3.22,0,0,0,.08-.67c0-.56-.2-.9-.59-1a6.6,6.6,0,0,0-2-.15v-1c2.06-.2,3.48-.35,4.29-.45l4.44-.66-5.16,17.08q2.39-1.53,4.14-2.9c1.81-1.42,2.72-2.42,2.72-3a.7.7,0,0,0-.61-.75,5.91,5.91,0,0,0-1.54-.17v-1h8.69v1a6.85,6.85,0,0,0-2.31.58,16.27,16.27,0,0,0-3.38,2.23l-1.44,1.17c-.36.29-1.17.91-1.17.91s.14.57.41,1.92.5,2.27.66,2.75a25.77,25.77,0,0,0,1.14,3.19,1.21,1.21,0,0,0,1.12.73,1.86,1.86,0,0,0,1.39-.71,11.26,11.26,0,0,0,1.15-1.69l.92.42a14.68,14.68,0,0,1-2.42,3.28,4.37,4.37,0,0,1-3.19,1.39,3.4,3.4,0,0,1-2.31-.82,6.18,6.18,0,0,1-1.51-2.19,18.29,18.29,0,0,1-1.05-3.32c-.26-1.26-.38-1.94-.38-2l-1.64,1-2.09,7Z"/><path class="cls-7" d="M80.33,126.94l-.66,1c-.22.33-.46.66-.72,1,.07-.24.15-.49.23-.75s.43-1.32,1-3,.83-2.55.91-2.77l2.26-6.9H75.6l-.3.91c-.62,1.93-1.08,3.34-1.39,4.15a39.29,39.29,0,0,1-1.62,3.71,17.49,17.49,0,0,1-2.9,4.33,6.9,6.9,0,0,1-1.3,1.13,4.89,4.89,0,0,1,.12-.49c.12-.4.21-.71.31-1l2-5.76,2.5-7.44H71.21a22.43,22.43,0,0,0-2.51.35c-1.37.21-3.49.43-6.3.66l-1.21.1v3.46l1.27,0a7.44,7.44,0,0,1,1,.09c0,.07,0,.16,0,.26a3.91,3.91,0,0,1-.19.66L61,127.83c-.17.51-.31,1-.45,1.62a7.89,7.89,0,0,0-.21,1.59,3.9,3.9,0,0,0,2,3.66,4.9,4.9,0,0,0,2.54.65h0A7.74,7.74,0,0,0,70,133.21c.26-.23.58-.53.91-.87a3.35,3.35,0,0,0,.68,1.65A4,4,0,0,0,75,135.33a7.1,7.1,0,0,0,4.49-1.71,13.78,13.78,0,0,0,3.3-3.82l.69-1.16Z"/><path class="cls-8" d="M61.81,129.77c.13-.54.27-1.05.41-1.51l2.28-7.1a7.1,7.1,0,0,0,.21-.82,2.81,2.81,0,0,0,.1-.69.9.9,0,0,0-.54-.93,5,5,0,0,0-1.8-.28v-1c2.85-.22,5-.45,6.41-.67s2.18-.33,2.31-.33l-1.93,5.72-2,5.74c-.09.27-.2.62-.32,1.06a6,6,0,0,0-.29,1.46.86.86,0,0,0,.25.68,1.15,1.15,0,0,0,.73.21c.68,0,1.58-.57,2.69-1.73a19,19,0,0,0,3.12-4.66,36.9,36.9,0,0,0,1.68-3.82c.31-.87.79-2.27,1.41-4.22h5l-1.7,5.19-.9,2.76c-.53,1.65-.85,2.63-1,3-.2.65-.38,1.25-.53,1.8a5.25,5.25,0,0,0-.22,1.14.77.77,0,0,0,.18.54.69.69,0,0,0,.49.19c.44,0,1-.43,1.76-1.28a13.75,13.75,0,0,0,1.15-1.49l.88.47a12.48,12.48,0,0,1-3,3.47A5.9,5.9,0,0,1,75,134.06a2.78,2.78,0,0,1-2.33-.84,2.27,2.27,0,0,1-.46-1.49,5.9,5.9,0,0,1,.17-1.52c.11-.43.36-1.19.75-2.3l-.09,0a35.74,35.74,0,0,1-3.85,4.38,6.5,6.5,0,0,1-4.28,1.83A3.65,3.65,0,0,1,63,133.6a2.65,2.65,0,0,1-1.35-2.53A6.46,6.46,0,0,1,61.81,129.77Z"/><path class="cls-7" d="M94.22,120.27a3,3,0,0,0,1.39,2.6,4.26,4.26,0,0,0,2.29.7,4.07,4.07,0,0,0,2.75-1,3.75,3.75,0,0,0,1.24-2.89,4.25,4.25,0,0,0-1.65-3.3,6.46,6.46,0,0,0-4.4-1.37,12.6,12.6,0,0,0-9.12,4.25,12.82,12.82,0,0,0-4.07,9c0,2.34.51,4,1.58,5.12a7.38,7.38,0,0,0,1.44,1.12l-2.06,2.66,1.61,1.44-.7-.26-.94-.38L81,141.44l1.64.6a20,20,0,0,0,1.94.61,13.84,13.84,0,0,0,3.15.37,8.88,8.88,0,0,0,4.35-1,3.83,3.83,0,0,0,2.21-3.47,3.54,3.54,0,0,0-1.73-3.15,2.71,2.71,0,0,0-.37-.21,9.57,9.57,0,0,0,3.87-1.68,21.57,21.57,0,0,0,3.57-3.72l.94-1.17-3.45-2.06-.72.93a10.49,10.49,0,0,1-2.19,2.22,3,3,0,0,1-1.82.64,1.48,1.48,0,0,1-1.49-.76,3,3,0,0,1-.35-1.49,14,14,0,0,1,1.67-5.86,8.73,8.73,0,0,1,2.14-3v0A3.35,3.35,0,0,0,94.22,120.27Zm-8,18.46.39-.09a3.55,3.55,0,0,1,.49,0,1.6,1.6,0,0,1,.74.1l0,0a2.17,2.17,0,0,1-.94.13,6.13,6.13,0,0,1-.92-.08Z"/><path class="cls-8" d="M87.63,120.17q3.77-3.86,8.18-3.85a5.2,5.2,0,0,1,3.54,1,3,3,0,0,1,1.21,2.32,2.43,2.43,0,0,1-.8,1.91,2.73,2.73,0,0,1-1.88.69,2.88,2.88,0,0,1-1.59-.49,1.63,1.63,0,0,1-.78-1.49,1.69,1.69,0,0,1,.08-.62A4.41,4.41,0,0,1,96,119l.18-.27a1.06,1.06,0,0,0,.18-.31.46.46,0,0,0,.06-.23.51.51,0,0,0-.32-.48,1.73,1.73,0,0,0-.78-.19c-1.5,0-2.93,1.4-4.28,4.16a15.18,15.18,0,0,0-1.79,6.43,4.16,4.16,0,0,0,.53,2.15,2.76,2.76,0,0,0,2.61,1.41,4.41,4.41,0,0,0,2.58-.88,12,12,0,0,0,2.48-2.5l1.16.69a21.21,21.21,0,0,1-3.33,3.49,8.55,8.55,0,0,1-5.2,1.62c-.14,0-.32,0-.57,0l-1.39,1.83.64-.05a3.46,3.46,0,0,1,.46,0,4.77,4.77,0,0,1,2.64.69,2.26,2.26,0,0,1,1.13,2,2.56,2.56,0,0,1-1.53,2.32,7.59,7.59,0,0,1-3.73.85,12.9,12.9,0,0,1-2.85-.32,16.43,16.43,0,0,1-1.79-.57l.92-1.26a8.88,8.88,0,0,0,1.66.53,7.47,7.47,0,0,0,1.22.11,2.67,2.67,0,0,0,1.83-.47,1.41,1.41,0,0,0,.48-1.08,1.19,1.19,0,0,0-.48-.91,2.42,2.42,0,0,0-1.6-.42,4.16,4.16,0,0,0-.66,0,3.2,3.2,0,0,0-.57.13l-.53-.48,2.41-3.12a4.51,4.51,0,0,1-2.63-1.42c-.81-.83-1.21-2.23-1.21-4.2A11.5,11.5,0,0,1,87.63,120.17Z"/><path class="cls-7" d="M120.66,127.08l-1.53,1.78,0,.06c0-.13.08-.27.11-.41.17-.62.46-1.52.88-2.77l3.59-10.58-7.46.44-.08.22a4.55,4.55,0,0,0-2.85-.84c-3,0-5.94,1.65-8.73,4.89s-4,6.25-4,9.3a5.76,5.76,0,0,0,1.94,4.81,6.26,6.26,0,0,0,3.89,1.39,7,7,0,0,0,4.08-1.27,12.89,12.89,0,0,0,1.22-1,3.33,3.33,0,0,0,1.15,1.38,4.48,4.48,0,0,0,2.62.88,6.15,6.15,0,0,0,3.93-1.55,22.16,22.16,0,0,0,3.47-3.7l.86-1.13Zm-12.35,2.09c0-.89.35-2.65,2-5.93,1.88-3.78,3.14-4.08,3.49-4.08.18,0,.24,0,.26.08a1.78,1.78,0,0,1,.09.64,16.29,16.29,0,0,1-1.73,6c-2.15,4-3.33,4.23-3.57,4.23a.29.29,0,0,1-.28-.13A1.22,1.22,0,0,1,108.31,129.17Z"/><path class="cls-8" d="M115.2,118.73a1.44,1.44,0,0,0-1.45-.84q-2.27,0-4.66,4.8c-1.41,2.83-2.11,5-2.11,6.51a2.49,2.49,0,0,0,.49,1.55,1.62,1.62,0,0,0,1.33.66c1.39,0,3-1.63,4.72-4.93a17.09,17.09,0,0,0,1.89-6.57A2.83,2.83,0,0,0,115.2,118.73Zm-9.69,2q3.8-4.43,7.72-4.43a3,3,0,0,1,2.36.84,4.52,4.52,0,0,1,.8,1.72l.71-2,4.67-.28-3,8.74c-.43,1.24-.73,2.19-.91,2.85a10.89,10.89,0,0,0-.55,2.68.54.54,0,0,0,.17.46.56.56,0,0,0,.36.12,1.33,1.33,0,0,0,.72-.23,6,6,0,0,0,.78-.72c.13-.13.37-.38.69-.74l.82-1,.88.57a20.3,20.3,0,0,1-3.25,3.48,4.9,4.9,0,0,1-3.11,1.26,3.25,3.25,0,0,1-1.87-.64,2.18,2.18,0,0,1-.9-1.88c0-.32,1.06.67,1.42-.55.08-.14-.89-1.73-1-1.51l-.72,1a10.89,10.89,0,0,1-2.62,2.54,5.74,5.74,0,0,1-3.33,1,4.93,4.93,0,0,1-3.09-1.11,4.49,4.49,0,0,1-1.43-3.78Q101.83,125.08,105.51,120.75Z"/><path class="cls-9" d="M146.44,111.37a1.8,1.8,0,0,0-.64,1.38,1.84,1.84,0,0,0,.65,1.41,2.27,2.27,0,0,0,1.55.57,2.18,2.18,0,0,0,1.56-.59,1.78,1.78,0,0,0,.64-1.39,1.8,1.8,0,0,0-.64-1.38,2.36,2.36,0,0,0-3.12,0m3.43,3.08a2.69,2.69,0,0,1-1.87.67,2.76,2.76,0,0,1-1.89-.68,2.19,2.19,0,0,1-.77-1.69,2.13,2.13,0,0,1,.83-1.73,2.92,2.92,0,0,1,3.73,0,2.2,2.2,0,0,1,.77,1.68,2.13,2.13,0,0,1-.8,1.7M148.26,112a1.42,1.42,0,0,0-.46-.06h-.19v.76h.3a.83.83,0,0,0,.43-.09.35.35,0,0,0,.15-.31.3.3,0,0,0-.23-.3m-1.42,2.11v-2.63h1.43a1.51,1.51,0,0,1,.58.13.65.65,0,0,1,.4.63.55.55,0,0,1-.21.48,1,1,0,0,1-.51.18.88.88,0,0,1,.41.15.65.65,0,0,1,.27.59v.31a.26.26,0,0,0,0,.08l0,.07h-.74a1.49,1.49,0,0,1,0-.36,2.12,2.12,0,0,0,0-.33.42.42,0,0,0-.22-.19,1.19,1.19,0,0,0-.27,0h-.33v.93Z"/></g></g></svg>