<svg id="Iconlar" xmlns="http://www.w3.org/2000/svg" viewBox="0 0 400 500"><defs><style>.cls-1,.cls-2{fill:none;}.cls-2{stroke:#fff;stroke-miterlimit:10;stroke-width:1.14px;}.cls-3{fill:#fff;}</style></defs><rect class="cls-1" width="400" height="500"/><polyline class="cls-2" points="370 41.86 370 30 30 30 30 470 370 470 370 114.08 370 118.39"/><path class="cls-3" d="M375.25,64.24a15.9,15.9,0,0,0-4,.51A.29.29,0,0,0,371,65v.48c-.19-.08-.38-.14-.57-.21h0a.3.3,0,0,0,.24-.25,22.68,22.68,0,0,0-.52-6.27,7.83,7.83,0,0,0,4.78,1.91,5.5,5.5,0,0,0,1.56-.22c4.81-1.37,7.3-8.63,7.41-8.94a.33.33,0,0,0,0-.24.32.32,0,0,0-.19-.15c-9.4-2.55-13,4.84-13.78,6.68a18.31,18.31,0,0,0-2.12-4.92.3.3,0,0,0-.41-.1.31.31,0,0,0-.1.42A20.84,20.84,0,0,1,370.07,65a.23.23,0,0,0,.06.18l-.23-.06c-.37-.13-.74-.23-1.11-.33l-.57-.15c-.4-.09-.81-.15-1.21-.21l-.51-.08a17.11,17.11,0,0,0-1.75-.1c-10,0-18.19,9.36-18.19,20.86,0,12.67,9.2,20.85,23.44,20.85,14.9,0,23.44-7.6,23.44-20.85C393.44,73.6,385.28,64.24,375.25,64.24Zm8-12.6c-.53,1.39-2.92,7.12-6.89,8.25-1.88.54-3.87,0-5.94-1.67C370.88,56.87,374.05,49.34,383.22,51.64ZM370,105.35c-13.87,0-22.84-7.95-22.84-20.25,0-11.17,7.89-20.26,17.59-20.26a16.56,16.56,0,0,1,1.73.1l.5.08c.4.06.81.12,1.21.22l.55.15c.37.1.74.2,1.1.32l.56.23c6.93,2.72,11.93,10.27,11.93,19.16a23.07,23.07,0,0,1-1.09,7,.3.3,0,0,0,.19.38h.09a.3.3,0,0,0,.29-.2,23.75,23.75,0,0,0,1.12-7.23c0-8.71-4.68-16.18-11.3-19.3v-.53a15.72,15.72,0,0,1,3.62-.43c9.7,0,17.59,9.09,17.59,20.26C392.84,92.66,389.87,105.35,370,105.35Z"/><path class="cls-3" d="M360.51,71.86a10.24,10.24,0,0,0-6.26,9.78.3.3,0,0,0,.6,0,9.66,9.66,0,0,1,5.91-9.23.3.3,0,1,0-.25-.55Z"/></svg>